<?xml version="1.0" encoding="utf-8"?>
<!-- Generator: Adobe Illustrator 25.2.0, SVG Export Plug-In . SVG Version: 6.00 Build 0)  -->
<svg version="1.1" id="Layer_1" xmlns="http://www.w3.org/2000/svg" xmlns:xlink="http://www.w3.org/1999/xlink" x="0px" y="0px"
	 viewBox="0 0 16 16" style="enable-background:new 0 0 16 16;" xml:space="preserve">
<style type="text/css">
	.st0{fill:#2E3A59;}
</style>
<path class="st0" d="M8,16c-4.42,0-8-3.58-8-8V7.84C0.09,3.44,3.71-0.06,8.1,0c4.4,0.06,7.92,3.65,7.89,8.05
	C15.97,12.45,12.4,16,8,16z M8,1.6C4.47,1.6,1.6,4.47,1.6,8c0,3.53,2.87,6.4,6.4,6.4c3.53,0,6.4-2.87,6.4-6.4
	C14.4,4.47,11.53,1.6,8,1.6z M8,12l-1.13-1.13L8.94,8.8H4V7.2h4.94L6.87,5.13L8,4l4,4L8,12z"/>
</svg>
