<?xml version="1.0" encoding="utf-8"?>
<!-- Generator: Adobe Illustrator 25.2.0, SVG Export Plug-In . SVG Version: 6.00 Build 0)  -->
<svg version="1.1" id="Layer_1" xmlns="http://www.w3.org/2000/svg" xmlns:xlink="http://www.w3.org/1999/xlink" x="0px" y="0px"
	 viewBox="0 0 110 21" style="enable-background:new 0 0 110 21;" xml:space="preserve">
<style type="text/css">
	.st0{fill:#FFFFFF;}
</style>
<g>
	<g>
		<g>
			<path class="st0" d="M42.69,1.94h-1.79v2c0,0.24-0.19,0.43-0.43,0.43h-2.34V1.94h2.77v-1.7h-4.57v8.99h1.8V6.06h2.79
				c1.05,0,1.78-0.73,1.78-1.77V2.01C42.71,1.99,42.71,1.96,42.69,1.94z"/>
		</g>
		<g>
			<path class="st0" d="M44.2,0.25v8.99H46V0.25H44.2z"/>
		</g>
		<g>
			<path class="st0" d="M52.43,0.19h-3.01c-1.05,0-1.77,0.73-1.77,1.78V7.5c0,1.05,0.72,1.77,1.77,1.77h3.01
				c1.05,0,1.78-0.72,1.78-1.77V1.97C54.21,0.92,53.48,0.19,52.43,0.19z M52.41,7.16c0,0.27-0.16,0.42-0.43,0.42h-2.11
				c-0.27,0-0.42-0.15-0.42-0.42V2.32c0-0.27,0.15-0.42,0.42-0.42h2.11c0.27,0,0.43,0.15,0.43,0.42V7.16z"/>
		</g>
		<g>
			<path class="st0" d="M55.53,0.25v1.67h2.34v7.31h1.8V1.92h2.34V0.25H55.53z"/>
		</g>
		<g>
			<path class="st0" d="M68.56,5.82c0.75-0.21,1.22-0.84,1.22-1.7V2.01c0-1.04-0.72-1.77-1.77-1.77h-4.58v8.99h1.8V5.89h1.45
				l1.45,3.34h1.93L68.56,5.82z M67.99,3.8c0,0.27-0.16,0.43-0.43,0.43h-2.33V1.94h2.33c0.27,0,0.43,0.16,0.43,0.43V3.8z"/>
		</g>
		<g>
			<path class="st0" d="M76.11,0.19H73.1c-1.05,0-1.78,0.73-1.78,1.78V7.5c0,1.05,0.73,1.77,1.78,1.77h3.01
				c1.05,0,1.77-0.72,1.77-1.77V1.97C77.88,0.92,77.16,0.19,76.11,0.19z M76.08,7.16c0,0.27-0.15,0.42-0.42,0.42h-2.11
				c-0.27,0-0.43-0.15-0.43-0.42V2.32c0-0.27,0.16-0.42,0.43-0.42h2.11c0.27,0,0.42,0.15,0.42,0.42V7.16z"/>
		</g>
		<g>
			<path class="st0" d="M88.04,0.25l-1.23,6.56L85.2,0.25h-1.42l-1.62,6.56l-1.23-6.56h-1.91l2.23,8.99h1.78l1.47-5.92l1.48,5.92
				h1.7l2.23-8.99H88.04z"/>
		</g>
		<g>
			<path class="st0" d="M95.55,4.09l-2.32-0.5c-0.27-0.06-0.43-0.16-0.43-0.43V2.32c0-0.27,0.16-0.42,0.43-0.42h1.8
				c0.27,0,0.42,0.15,0.42,0.42v0.7h1.75V1.97c0-1.05-0.72-1.78-1.77-1.78h-2.64c-1.05,0-1.77,0.73-1.77,1.78v1.52
				c0,1,0.82,1.58,1.79,1.8l2.32,0.5c0.28,0.06,0.43,0.15,0.43,0.42v0.96c0,0.27-0.15,0.42-0.43,0.42h-1.94
				c-0.27,0-0.43-0.15-0.43-0.42v-0.8h-1.74V7.5c0,1.05,0.72,1.77,1.77,1.77h2.79c1.05,0,1.78-0.72,1.78-1.77V5.88
				C97.34,4.88,96.52,4.3,95.55,4.09z"/>
		</g>
		<g>
			<path class="st0" d="M103.2,3.79l2.76-3.55h-2.1l-3.11,4.22V0.25h-1.77v8.99h1.77v-2.3L102,5.32l2.07,3.91h2.02L103.2,3.79z"/>
		</g>
		<g>
			<path class="st0" d="M107.46,0.25v8.99h1.79V0.25H107.46z"/>
		</g>
		<g>
			<path class="st0" d="M36.34,11.6v1.71h2.39v7.45h1.83v-7.45h2.38V11.6H36.34z"/>
		</g>
		<g>
			<path class="st0" d="M49.62,17.28c0.76-0.22,1.25-0.86,1.25-1.73v-2.14c0-1.07-0.74-1.81-1.81-1.81H44.4v9.15h1.83v-3.39h1.47
				l1.48,3.39h1.98L49.62,17.28z M49.04,15.22c0,0.28-0.16,0.44-0.44,0.44h-2.37v-2.33h2.37c0.28,0,0.44,0.16,0.44,0.44V15.22z"/>
		</g>
		<g>
			<path class="st0" d="M57.38,11.6h-2.13l-2.95,9.15h1.89l0.61-2.06h2.95l0.6,2.06h1.97L57.38,11.6z M55.31,16.97l0.99-3.36
				l0.97,3.36H55.31z"/>
		</g>
		<g>
			<path class="st0" d="M67.06,11.6v6.24l-3.37-6.24h-1.97v9.15h1.72v-6.24l3.36,6.24h1.98V11.6H67.06z"/>
		</g>
		<g>
			<path class="st0" d="M75.07,15.51l-2.36-0.5c-0.28-0.07-0.44-0.16-0.44-0.44v-0.86c0-0.28,0.16-0.44,0.44-0.44h1.83
				c0.28,0,0.43,0.16,0.43,0.44v0.71h1.78v-1.06c0-1.07-0.73-1.81-1.8-1.81h-2.69c-1.07,0-1.81,0.74-1.81,1.81v1.55
				c0,1.01,0.84,1.61,1.83,1.83l2.37,0.51c0.28,0.06,0.43,0.15,0.43,0.43v0.97c0,0.28-0.15,0.44-0.43,0.44h-1.99
				c-0.28,0-0.43-0.16-0.43-0.44v-0.81h-1.79V19c0,1.07,0.74,1.81,1.81,1.81h2.85c1.06,0,1.8-0.74,1.8-1.81v-1.65
				C76.9,16.33,76.07,15.73,75.07,15.51z"/>
		</g>
		<g>
			<path class="st0" d="M85.03,13.33h-1.82v2.04c0,0.24-0.19,0.43-0.43,0.43h-2.39v-2.46h2.82V11.6h-4.65v9.15h1.83v-3.22h2.84
				c1.07,0,1.81-0.74,1.81-1.81v-2.31C85.04,13.38,85.04,13.35,85.03,13.33z"/>
		</g>
		<g>
			<path class="st0" d="M91.32,11.55h-3.06c-1.07,0-1.81,0.74-1.81,1.81V19c0,1.07,0.74,1.81,1.81,1.81h3.06
				c1.07,0,1.81-0.74,1.81-1.81v-5.64C93.13,12.29,92.39,11.55,91.32,11.55z M91.3,18.64c0,0.28-0.16,0.44-0.44,0.44h-2.14
				c-0.28,0-0.44-0.16-0.44-0.44v-4.93c0-0.28,0.16-0.44,0.44-0.44h2.14c0.28,0,0.44,0.16,0.44,0.44V18.64z"/>
		</g>
		<g>
			<path class="st0" d="M100.06,17.28c0.76-0.22,1.25-0.86,1.25-1.73v-2.14c0-1.07-0.74-1.81-1.81-1.81h-4.66v9.15h1.83v-3.39h1.47
				l1.48,3.39h1.98L100.06,17.28z M99.48,15.22c0,0.28-0.16,0.44-0.44,0.44h-2.37v-2.33h2.37c0.28,0,0.44,0.16,0.44,0.44V15.22z"/>
		</g>
		<g>
			<path class="st0" d="M102.65,11.6v1.71h2.39v7.45h1.83v-7.45h2.38V11.6H102.65z"/>
		</g>
	</g>
	<g>
		<path class="st0" d="M26.04,5.35v2.58c0,1.42-1.15,2.58-2.58,2.58h-2.58V5.35H26.04V0.19h-5.15h-5.15h-5.15v5.15h5.15v2.58v2.58
			h-5.15v5.14H5.43V10.5h5.15V5.35H5.43V0.2H0.28v5.15h5.15v5.14H0.28v5.15h5.15v5.15h5.15v-5.14h5.15v5.15h5.15v-5.15h2.58
			c4.27,0,7.73-3.46,7.73-7.73V5.35H26.04z"/>
	</g>
</g>
</svg>
