<?xml version="1.0" encoding="utf-8"?>
<!-- Generator: Adobe Illustrator 25.2.0, SVG Export Plug-In . SVG Version: 6.00 Build 0)  -->
<svg version="1.1" id="Layer_1" xmlns="http://www.w3.org/2000/svg" xmlns:xlink="http://www.w3.org/1999/xlink" x="0px" y="0px"
	 viewBox="0 0 220 220" style="enable-background:new 0 0 220 220;" xml:space="preserve">
<style type="text/css">
	.st0{fill:#FFFFFF;}
</style>
<g>
	<g>
		<g>
			<g>
				<path class="st0" d="M21.11,164.79h-5.22v5.83c0,0.7-0.55,1.25-1.25,1.25H7.81v-7.08h8.08v-4.95H2.55v26.25h5.26v-9.26h8.14
					c3.07,0,5.19-2.13,5.19-5.16V165C21.14,164.94,21.14,164.85,21.11,164.79z"/>
			</g>
			<g>
				<path class="st0" d="M25.52,159.84v26.25h5.26v-26.25H25.52z"/>
			</g>
			<g>
				<path class="st0" d="M49.54,159.69h-8.78c-3.07,0-5.16,2.13-5.16,5.19v16.16c0,3.07,2.1,5.16,5.16,5.16h8.78
					c3.07,0,5.19-2.1,5.19-5.16v-16.16C54.74,161.82,52.61,159.69,49.54,159.69z M49.48,180.04c0,0.79-0.46,1.22-1.25,1.22h-6.17
					c-0.79,0-1.21-0.43-1.21-1.22v-14.16c0-0.79,0.43-1.22,1.21-1.22h6.17c0.79,0,1.25,0.43,1.25,1.22V180.04z"/>
			</g>
			<g>
				<path class="st0" d="M58.6,159.84v4.89h6.83v21.35h5.26v-21.35h6.83v-4.89H58.6z"/>
			</g>
			<g>
				<path class="st0" d="M96.66,176.12c2.19-0.61,3.55-2.46,3.55-4.95V165c0-3.04-2.1-5.16-5.16-5.16H81.68v26.25h5.26v-9.75h4.22
					l4.22,9.75h5.65L96.66,176.12z M94.99,170.23c0,0.79-0.46,1.25-1.25,1.25h-6.8v-6.68h6.8c0.79,0,1.25,0.46,1.25,1.25V170.23z"/>
			</g>
			<g>
				<path class="st0" d="M118.71,159.69h-8.78c-3.07,0-5.19,2.13-5.19,5.19v16.16c0,3.07,2.13,5.16,5.19,5.16h8.78
					c3.07,0,5.16-2.1,5.16-5.16v-16.16C123.88,161.82,121.78,159.69,118.71,159.69z M118.62,180.04c0,0.79-0.43,1.22-1.21,1.22
					h-6.17c-0.79,0-1.25-0.43-1.25-1.22v-14.16c0-0.79,0.46-1.22,1.25-1.22h6.17c0.79,0,1.21,0.43,1.21,1.22V180.04z"/>
			</g>
			<g>
				<path class="st0" d="M153.55,159.84l-3.58,19.17l-4.71-19.17h-4.16l-4.74,19.17l-3.58-19.17h-5.59l6.5,26.25h5.19l4.28-17.28
					l4.31,17.28h4.95l6.5-26.25H153.55z"/>
			</g>
			<g>
				<path class="st0" d="M175.49,171.08l-6.77-1.46c-0.79-0.18-1.25-0.46-1.25-1.25v-2.49c0-0.79,0.46-1.22,1.25-1.22h5.26
					c0.79,0,1.21,0.43,1.21,1.22v2.04h5.1v-3.04c0-3.07-2.1-5.19-5.16-5.19h-7.72c-3.07,0-5.16,2.13-5.16,5.19v4.44
					c0,2.92,2.4,4.62,5.22,5.26l6.77,1.46c0.82,0.18,1.25,0.43,1.25,1.22v2.79c0,0.79-0.43,1.22-1.25,1.22h-5.68
					c-0.79,0-1.25-0.43-1.25-1.22v-2.34h-5.07v3.34c0,3.07,2.1,5.16,5.16,5.16h8.14c3.07,0,5.19-2.1,5.19-5.16v-4.74
					C180.74,173.39,178.34,171.69,175.49,171.08z"/>
			</g>
			<g>
				<path class="st0" d="M197.84,170.2l8.05-10.36h-6.14l-9.08,12.33v-12.33h-5.16v26.25h5.16v-6.71l3.68-4.71l6.04,11.42h5.89
					L197.84,170.2z"/>
			</g>
			<g>
				<path class="st0" d="M210.3,159.84v26.25h5.22v-26.25H210.3z"/>
			</g>
			<g>
				<path class="st0" d="M2.55,193.01v4.98h6.99v21.75h5.35v-21.75h6.96v-4.98H2.55z"/>
			</g>
			<g>
				<path class="st0" d="M41.34,209.6c2.22-0.64,3.65-2.52,3.65-5.04v-6.26c0-3.13-2.16-5.29-5.29-5.29H26.09v26.73h5.35v-9.9h4.28
					l4.31,9.9h5.77L41.34,209.6z M39.64,203.58c0,0.82-0.46,1.28-1.28,1.28h-6.93v-6.8h6.93c0.82,0,1.28,0.46,1.28,1.28V203.58z"/>
			</g>
			<g>
				<path class="st0" d="M64,193.01h-6.23l-8.63,26.73h5.53l1.79-6.01h8.63l1.76,6.01h5.74L64,193.01z M57.96,208.69l2.89-9.81
					l2.83,9.81H57.96z"/>
			</g>
			<g>
				<path class="st0" d="M92.28,193.01v18.23l-9.84-18.23H76.7v26.73h5.01v-18.23l9.81,18.23h5.77v-26.73H92.28z"/>
			</g>
			<g>
				<path class="st0" d="M115.67,204.43l-6.9-1.46c-0.82-0.21-1.28-0.46-1.28-1.28v-2.52c0-0.82,0.46-1.28,1.28-1.28h5.35
					c0.82,0,1.25,0.46,1.25,1.28v2.07h5.19v-3.1c0-3.13-2.13-5.29-5.26-5.29h-7.87c-3.13,0-5.29,2.16-5.29,5.29v4.53
					c0,2.95,2.46,4.71,5.35,5.35l6.93,1.49c0.82,0.18,1.25,0.43,1.25,1.25v2.83c0,0.82-0.43,1.28-1.25,1.28h-5.8
					c-0.82,0-1.25-0.46-1.25-1.28v-2.37h-5.22v3.4c0,3.13,2.16,5.29,5.29,5.29h8.32c3.1,0,5.26-2.16,5.26-5.29v-4.83
					C121.02,206.83,118.59,205.07,115.67,204.43z"/>
			</g>
			<g>
				<path class="st0" d="M144.78,198.05h-5.32v5.95c0,0.7-0.55,1.25-1.25,1.25h-6.99v-7.2h8.23v-5.04h-13.58v26.73h5.35v-9.42h8.29
					c3.13,0,5.29-2.16,5.29-5.29v-6.74C144.81,198.21,144.81,198.12,144.78,198.05z"/>
			</g>
			<g>
				<path class="st0" d="M163.15,192.86h-8.93c-3.13,0-5.29,2.16-5.29,5.29v16.46c0,3.13,2.16,5.29,5.29,5.29h8.93
					c3.13,0,5.29-2.16,5.29-5.29v-16.46C168.44,195.02,166.28,192.86,163.15,192.86z M163.09,213.58c0,0.82-0.46,1.28-1.28,1.28
					h-6.26c-0.82,0-1.28-0.46-1.28-1.28v-14.4c0-0.82,0.46-1.28,1.28-1.28h6.26c0.82,0,1.28,0.46,1.28,1.28V213.58z"/>
			</g>
			<g>
				<path class="st0" d="M188.67,209.6c2.22-0.64,3.65-2.52,3.65-5.04v-6.26c0-3.13-2.16-5.29-5.29-5.29h-13.61v26.73h5.35v-9.9
					h4.28l4.31,9.9h5.77L188.67,209.6z M186.97,203.58c0,0.82-0.46,1.28-1.28,1.28h-6.93v-6.8h6.93c0.82,0,1.28,0.46,1.28,1.28
					V203.58z"/>
			</g>
			<g>
				<path class="st0" d="M196.23,193.01v4.98h6.99v21.75h5.35v-21.75h6.96v-4.98H196.23z"/>
			</g>
		</g>
	</g>
	<g>
		<path class="st0" d="M180.02,35.61v17.75c0,9.8-7.95,17.75-17.75,17.75h-17.75v-35.5H180.02V0.1h-35.5h-35.5h-35.5v35.5h35.5
			v17.75v17.75h-35.5v35.43H38.05V71.11h35.47v-35.5H38.05V0.14H2.55v35.5h35.47v35.43H2.55v35.5h35.47v35.47h35.5v-35.43h35.5v35.5
			h35.5v-35.5h17.75c29.41,0,53.25-23.84,53.25-53.25V35.61H180.02z"/>
	</g>
</g>
</svg>
